# xmcd
#
# Track frame offsets:
#	150
#	10861
#	26550
#	40234
#	47486
#	64048
#	79913
#	98763
#	117938
#	133378
#	145075
#	159585
#	173235
#	191278
#	207097
#	216416
#	231565
#	245295
#
# Disc length: 3589 seconds
#
# Revision: 0
# Processed by: cddbd v1.5.2PL0 Copyright (c) Steve Scherf et al.
# Submitted via: EasyCDDAExtractor 16.0.8.2
#
DISCID=fa0e0312
DTITLE=Συλλογικός δίσκος - Αρχ. ελλ. μουσ. 12 Δωδεκάνησα 
DYEAR=1999
DGENRE=Παραδοσιακή
TTITLE0=Γκουβέντας Κυριάκος - Πηδηχτός χορός [Ρόδος]
TTITLE1=Κλαδάκης Γιάννης - Μακάρι και να πέθαινα [Ρόδος]
TTITLE2=Δερέμπεη Ειρήνη - Ο μισεμός [Καστελλόριζο]
TTITLE3=Γρύλλης Θεολόγης - Κουρσάρικο [Θεολόγης Γρύλλης, Πάτμος]
TTITLE4=Χατζηδάκη Δικαία - Το κάστρο της Αστροπαλιάς [Αστυπάλαια]
TTITLE5=Παπαδοπούλου Κατ.-Σινοπούλου Ουρ. - Η μπρατσέρα ή Τού Προύτζου [Λέρος]
TTITLE6=Άνευ ερμηνευτού - Ίσσος χορός [Στάθης Κουκουλάρης, Λέρος]
TTITLE7=Παππούλη Κατίνα - Στείλε με μάννα στο νερό [Κως]
TTITLE8=Άνευ ερμηνευτού - Σούστα Κώτικη [Γαβρίλης Παλλίζης, Κως]
TTITLE9=Χορωδία - Σ' όσους γάμους κι αν επήγα [Χάλκη]
TTITLE10=Λαρδόπουλος Φίλιππος - Άρχεψε γλώσσα μ' άρχεψε [Τήλος]
TTITLE11=Άνευ ερμηνευτού - Ο Άσσος [Στάθης Κουκουλάρης, Νίσυρος]
TTITLE12=Κοντός Κώστας - Η μαυρομάτα [Σύμη]
TTITLE13=Παπαδοπούλου Κατερίνα - Μαρούλι [Κάλυμνος]
TTITLE14=Άνευ ερμηνευτού - Ίσσος τσαμπουνιστός [Μαν. Χούλης, Κάλυμνος]
TTITLE15=Περσελής Δημήτρης - Περνούν τα σύννεφα [Κάσος]
TTITLE16=Γκριέλας Σταμάτης - Γαϊτάνι γαϊτανάκι μου [Κάρπαθος]
TTITLE17=Άνευ ερμηνευτού - Σκοποί της νύχτας [Μιχ. Ζωγραφίδης, Κάρπαθος]
EXTD=
EXTT0=
EXTT1=
EXTT2=
EXTT3=
EXTT4=
EXTT5=
EXTT6=
EXTT7=
EXTT8=
EXTT9=
EXTT10=
EXTT11=
EXTT12=
EXTT13=
EXTT14=
EXTT15=
EXTT16=
EXTT17=
PLAYORDER=
